# xmcd
# 
# Track frame offsets:
#     150
#     18343
#     33038
#     51672
#     73502
#     92382
#     104973
#     130981
#     147229
# 
# Disc length: 2292
# 
# Revision: 0
# Processed by: cddbd v1.5.2PL0 Copyright (c) Steve Scherf et al.
# Submitted via: fre:ac v1.0.17
# 
DISCID=7d08f209
DTITLE=Saxon - Denim And Leather
DYEAR=1981
DGENRE=Heavy Metal
TTITLE0=Princess Of The Night
TTITLE1=Never Surrender
TTITLE2=Out Of Control
TTITLE3=Rough And Ready
TTITLE4=Play It Loud
TTITLE5=And The Bands Played On
TTITLE6=Midnight Rider
TTITLE7=Fire In The Sky
TTITLE8=Denim And Leather
EXTD=
EXTT0=
EXTT1=
EXTT2=
EXTT3=
EXTT4=
EXTT5=
EXTT6=
EXTT7=
EXTT8=
PLAYORDER=
